# xmcd CD database file
# Copyright (C) 1993-1998 Ti Kan
#
# Track frame offsets:
#  150
#  17450
#  61640
#  75425
#  106575
#  120857
#  154305
#  168472
#
# Disc length: 2913 seconds
#
# Revision: 1
# Processed by: cddbd v1.4b41PL1 Copyright (c) Steve Scherf et al.
# Submitted via: CDWizzard Release:4.35
#
DISCID=470b5f08
DTITLE=American Festival Chorus and Orchestra - Folksong Symphony
DYEAR=1900
DGENRE=
TTITLE0=The Girl I Left Behind Me
TTITLE1=Western Cowboy
TTITLE2=First Interlude for String Orchestra and Percussion
TTITLE3=Mountaineer Love Song
TTITLE4=Second Interlude for Orchestra
TTITLE5=Negro Fantasy
TTITLE6=When Johnny COmes Marching Home
TTITLE7=Gregarian Chant for String Orchestra, Paul Crreston
EXTD=
EXTT0=
EXTT1=
EXTT2=
EXTT3=
EXTT4=
EXTT5=
EXTT6=
EXTT7=
PLAYORDER=
